<?xml version="1.0" encoding="UTF-8" standalone="no"?>
<svg width="237px" height="57px" viewBox="0 0 237 57" version="1.1" xmlns="http://www.w3.org/2000/svg" xmlns:xlink="http://www.w3.org/1999/xlink" xmlns:sketch="http://www.bohemiancoding.com/sketch/ns">
    <!-- Generator: Sketch 3.1.1 (8761) - http://www.bohemiancoding.com/sketch -->
    <title>logo-easyFairs</title>
    <desc>Created with Sketch.</desc>
    <defs/>
    <g id="styleguide" stroke="none" stroke-width="1" fill="none" fill-rule="evenodd" sketch:type="MSPage">
        <g id="logo-easyFairs" sketch:type="MSArtboardGroup">
            <g id="logo-big-2" sketch:type="MSLayerGroup">
                <path d="M67.9503761,33.0892295 C67.8485015,32.8616366 67.9843343,32.6340438 68.2390209,32.6340438 L68.9181851,32.6340438 C69.070997,32.6340438 69.1728716,32.7390866 69.2068299,32.8273518 L73.4353343,42.6313518 L73.5025433,42.6313518 L77.7310478,32.8273518 C77.765006,32.7390866 77.8838597,32.6340438 78.0196925,32.6340438 L78.6988567,32.6340438 C78.9535433,32.6340438 79.0893761,32.8616366 78.9875015,33.0892295 L73.8258537,44.8722661 C73.7749164,44.9780384 73.6730418,45.0655741 73.5365015,45.0655741 L73.3674179,45.0655741 C73.2485642,45.0655741 73.1297104,44.9780384 73.0780657,44.8722661 L67.9503761,33.0892295" id="Fill-1" fill="#1D2649" sketch:type="MSShapeGroup"/>
                <path d="M80.1930179,38.2195518 C80.1930179,38.0444804 80.3458299,37.8869161 80.5156209,37.8869161 L81.0419731,37.8869161 C81.2117642,37.8869161 81.3645761,38.0444804 81.3645761,38.2195518 L81.3645761,44.557867 C81.3645761,44.7329384 81.2117642,44.8905027 81.0419731,44.8905027 L80.5156209,44.8905027 C80.3458299,44.8905027 80.1930179,44.7329384 80.1930179,44.557867 L80.1930179,38.2195518 L80.1930179,38.2195518 Z M79.9553104,33.8252589 C79.9553104,33.3518366 80.3118716,32.9841866 80.7533284,32.9841866 C81.2117642,32.9841866 81.5683254,33.3518366 81.5683254,33.8252589 C81.5683254,34.2804446 81.2117642,34.6480946 80.7533284,34.6480946 C80.3118716,34.6480946 79.9553104,34.2804446 79.9553104,33.8252589 L79.9553104,33.8252589 Z" id="Fill-2" fill="#1D2649" sketch:type="MSShapeGroup"/>
                <path d="M83.3681104,43.9101027 C83.4367343,43.8043304 83.5548806,43.5592304 83.6065254,43.4716946 C83.6907134,43.332367 83.878191,43.2966232 84.0649612,43.4191732 C84.0649612,43.4191732 84.7943552,44.0326527 85.660997,44.0326527 C86.3571403,44.0326527 86.7646388,43.6650027 86.7646388,43.1923098 C86.7646388,42.5795598 86.2552657,42.2987161 85.2704776,41.7917384 C84.3705851,41.3365527 83.3341522,40.7230732 83.3341522,39.5325875 C83.3341522,38.7972875 83.9114418,37.7118446 85.491206,37.7118446 C86.3741194,37.7118446 87.0532836,38.0262437 87.3758866,38.2545661 C87.5286985,38.3596089 87.5796358,38.6039795 87.4777612,38.7972875 L87.3419284,39.0774018 C87.2400537,39.2699804 87.0023463,39.3225018 86.8495343,39.2349661 C86.8495343,39.2349661 86.1194328,38.8147946 85.491206,38.8147946 C84.7271463,38.8147946 84.523397,39.2174589 84.523397,39.5150804 C84.523397,40.0928161 85.0837075,40.3554232 85.7798507,40.7055661 C86.951409,41.2833018 88.0041134,41.8260232 88.0041134,43.0865375 C88.0041134,44.1026813 87.0532836,45.0655741 85.660997,45.0655741 C84.523397,45.0655741 83.8272537,44.5753741 83.453006,44.2777527 C83.3681104,44.2069946 83.3178806,44.0326527 83.3681104,43.9101027" id="Fill-3" fill="#1D2649" sketch:type="MSShapeGroup"/>
                <path d="M89.8208776,38.2195518 C89.8208776,38.0444804 89.974397,37.8869161 90.1434806,37.8869161 L90.6705403,37.8869161 C90.8396239,37.8869161 90.9931433,38.0444804 90.9931433,38.2195518 L90.9931433,44.557867 C90.9931433,44.7329384 90.8396239,44.8905027 90.6705403,44.8905027 L90.1434806,44.8905027 C89.974397,44.8905027 89.8208776,44.7329384 89.8208776,44.557867 L89.8208776,38.2195518 L89.8208776,38.2195518 Z M89.5831701,33.8252589 C89.5831701,33.3518366 89.9397313,32.9841866 90.3811881,32.9841866 C90.8396239,32.9841866 91.1968925,33.3518366 91.1968925,33.8252589 C91.1968925,34.2804446 90.8396239,34.6480946 90.3811881,34.6480946 C89.9397313,34.6480946 89.5831701,34.2804446 89.5831701,33.8252589 L89.5831701,33.8252589 Z" id="Fill-4" fill="#1D2649" sketch:type="MSShapeGroup"/>
                <path d="M93.8456328,38.9373446 L92.9796985,38.9373446 C92.7929284,38.9373446 92.6570955,38.7797804 92.6570955,38.6039795 L92.6570955,38.2195518 C92.6570955,38.0262437 92.7929284,37.8869161 92.9796985,37.8869161 L93.8456328,37.8869161 L93.8456328,35.9436232 C93.8456328,35.7685518 93.9984448,35.6109875 94.1682358,35.6109875 L94.7115672,35.5752437 C94.8813582,35.5752437 95.017191,35.7335375 95.017191,35.9078795 L95.017191,37.8869161 L96.9867672,37.8869161 C97.1735373,37.8869161 97.3093701,38.0262437 97.3093701,38.2195518 L97.3093701,38.6039795 C97.3093701,38.7797804 97.1735373,38.9373446 96.9867672,38.9373446 L95.017191,38.9373446 L95.017191,43.0347455 C95.017191,43.7350312 95.1869821,43.8743589 95.5775015,43.8743589 C96.0019791,43.8743589 96.5962478,43.6124812 96.8176836,43.4899312 C97.0716627,43.3491446 97.1395791,43.454917 97.2244746,43.5942446 L97.4798687,44.0326527 C97.5987224,44.2427384 97.5470776,44.3477812 97.3603075,44.4696018 C97.1226,44.6271661 96.2057284,45.0655741 95.4077104,45.0655741 C94.0493821,45.0655741 93.8456328,44.2252312 93.8456328,43.1390589 L93.8456328,38.9373446" id="Fill-5" fill="#1D2649" sketch:type="MSShapeGroup"/>
                <path d="M103.422555,38.9373446 L102.555913,38.9373446 C102.369143,38.9373446 102.23331,38.7797804 102.23331,38.6039795 L102.23331,38.2195518 C102.23331,38.0262437 102.369143,37.8869161 102.555913,37.8869161 L103.422555,37.8869161 L103.422555,35.9436232 C103.422555,35.7685518 103.575367,35.6109875 103.745158,35.6109875 L104.28849,35.5752437 C104.458281,35.5752437 104.594113,35.7335375 104.594113,35.9078795 L104.594113,37.8869161 L106.56369,37.8869161 C106.75046,37.8869161 106.886293,38.0262437 106.886293,38.2195518 L106.886293,38.6039795 C106.886293,38.7797804 106.75046,38.9373446 106.56369,38.9373446 L104.594113,38.9373446 L104.594113,43.0347455 C104.594113,43.7350312 104.763904,43.8743589 105.154424,43.8743589 C105.578901,43.8743589 106.17317,43.6124812 106.393899,43.4899312 C106.648585,43.3491446 106.716501,43.454917 106.801397,43.5942446 L107.056084,44.0326527 C107.174937,44.2427384 107.124,44.3477812 106.93723,44.4696018 C106.699522,44.6271661 105.782651,45.0655741 104.984633,45.0655741 C103.626304,45.0655741 103.422555,44.2252312 103.422555,43.1390589 L103.422555,38.9373446" id="Fill-6" fill="#1D2649" sketch:type="MSShapeGroup"/>
                <path d="M108.805639,32.9666795 C108.805639,32.7923375 108.958451,32.6340438 109.127534,32.6340438 L109.653887,32.6340438 C109.823678,32.6340438 109.977197,32.7923375 109.977197,32.9666795 L109.977197,38.6397232 C109.977197,38.6397232 110.87709,37.7118446 112.252397,37.7118446 C113.933328,37.7118446 114.884158,38.8147946 114.884158,40.8631304 L114.884158,44.557867 C114.884158,44.7329384 114.732054,44.8905027 114.562263,44.8905027 L114.018224,44.8905027 C113.84914,44.8905027 113.695621,44.7329384 113.695621,44.557867 L113.695621,40.8631304 C113.695621,39.5325875 113.118331,38.8848232 112.167501,38.8848232 C110.87709,38.8848232 109.977197,39.8652232 109.977197,39.8652232 L109.977197,44.557867 C109.977197,44.7329384 109.823678,44.8905027 109.653887,44.8905027 L109.127534,44.8905027 C108.958451,44.8905027 108.805639,44.7329384 108.805639,44.557867 L108.805639,32.9666795" id="Fill-7" fill="#1D2649" sketch:type="MSShapeGroup"/>
                <path d="M121.948173,40.7055661 C121.897236,39.6901518 121.082239,38.7797804 120.046513,38.7797804 C118.908913,38.7797804 118.026,39.6201232 117.906439,40.7055661 L121.948173,40.7055661 L121.948173,40.7055661 Z M120.046513,37.7118446 C121.829319,37.7118446 123.119731,39.0774018 123.119731,40.9156518 C123.119731,41.0382018 123.102752,41.2657946 123.085773,41.3883446 C123.068794,41.5634161 122.932961,41.6859661 122.780149,41.6859661 L117.88946,41.6859661 C117.957376,42.8589446 118.959143,43.9618946 120.165367,43.9618946 C120.877782,43.9618946 121.455779,43.6817804 121.846299,43.4366804 C122.083299,43.2966232 122.185881,43.209817 122.321713,43.4023955 C122.423588,43.5417232 122.508484,43.6650027 122.610358,43.8043304 C122.729212,43.9618946 122.797128,44.067667 122.542442,44.2595161 C122.134943,44.5921518 121.218072,45.0655741 120.046513,45.0655741 C117.991334,45.0655741 116.717901,43.4023955 116.717901,41.3883446 C116.717901,39.4100375 117.991334,37.7118446 120.046513,37.7118446 L120.046513,37.7118446 Z" id="Fill-8" fill="#1D2649" sketch:type="MSShapeGroup"/>
                <path d="M129.283854,38.9373446 L128.247421,38.9373446 C128.061358,38.9373446 127.924818,38.7797804 127.924818,38.6039795 L127.924818,38.2195518 C127.924818,38.0262437 128.061358,37.8869161 128.247421,37.8869161 L129.283854,37.8869161 L129.283854,35.4359161 C129.283854,33.4050875 130.421454,32.4597018 131.881657,32.4597018 C132.815507,32.4597018 133.443734,32.8791438 133.750066,33.1767652 C133.868919,33.2825375 133.885191,33.4568795 133.817275,33.5801589 L133.546316,34.0353446 C133.443734,34.2096866 133.273943,34.1929089 133.10486,34.0521223 C132.883424,33.8770509 132.374051,33.5444152 131.864678,33.5444152 C131.083639,33.5444152 130.454704,34.0871366 130.454704,35.4359161 L130.454704,37.8869161 L132.425696,37.8869161 C132.611758,37.8869161 132.747591,38.0262437 132.747591,38.2195518 L132.747591,38.6039795 C132.747591,38.7797804 132.611758,38.9373446 132.425696,38.9373446 L130.454704,38.9373446 L130.454704,44.557867 C130.454704,44.7329384 130.3026,44.8905027 130.132101,44.8905027 L129.606457,44.8905027 C129.436666,44.8905027 129.283854,44.7329384 129.283854,44.557867 L129.283854,38.9373446" id="Fill-9" fill="#1D2649" sketch:type="MSShapeGroup"/>
                <path d="M134.088233,38.2195518 C134.088233,38.0444804 134.241045,37.8869161 134.410836,37.8869161 L134.954875,37.8869161 C135.123958,37.8869161 135.277478,38.0444804 135.277478,38.2195518 L135.277478,41.9142884 C135.277478,43.2448312 135.85406,43.8918661 136.805597,43.8918661 C138.096009,43.8918661 138.825403,42.8939589 138.825403,42.8939589 L138.825403,38.2195518 C138.825403,38.0444804 138.978922,37.8869161 139.148713,37.8869161 L139.675066,37.8869161 C139.844857,37.8869161 139.997669,38.0444804 139.997669,38.2195518 L139.997669,44.557867 C139.997669,44.7329384 139.844857,44.8905027 139.675066,44.8905027 L139.352463,44.8905027 C139.165693,44.8905027 139.097776,44.7679527 139.046839,44.5921518 L138.927985,44.1369661 C138.927985,44.1369661 138.129967,45.0655741 136.720701,45.0655741 C134.751125,45.0655741 134.088233,43.7518089 134.088233,41.8960518 L134.088233,38.2195518" id="Fill-10" fill="#1D2649" sketch:type="MSShapeGroup"/>
                <path d="M142.850866,38.9373446 L141.984931,38.9373446 C141.798161,38.9373446 141.662328,38.7797804 141.662328,38.6039795 L141.662328,38.2195518 C141.662328,38.0262437 141.798161,37.8869161 141.984931,37.8869161 L142.850866,37.8869161 L142.850866,35.9436232 C142.850866,35.7685518 143.003678,35.6109875 143.173469,35.6109875 L143.717507,35.5752437 C143.886591,35.5752437 144.022424,35.7335375 144.022424,35.9078795 L144.022424,37.8869161 L145.992,37.8869161 C146.17877,37.8869161 146.314603,38.0262437 146.314603,38.2195518 L146.314603,38.6039795 C146.314603,38.7797804 146.17877,38.9373446 145.992,38.9373446 L144.022424,38.9373446 L144.022424,43.0347455 C144.022424,43.7350312 144.192215,43.8743589 144.582734,43.8743589 C145.007919,43.8743589 145.602188,43.6124812 145.822209,43.4899312 C146.076896,43.3491446 146.144812,43.454917 146.229707,43.5942446 L146.485101,44.0326527 C146.603955,44.2427384 146.55231,44.3477812 146.366248,44.4696018 C146.12854,44.6271661 145.210961,45.0655741 144.412943,45.0655741 C143.054615,45.0655741 142.850866,44.2252312 142.850866,43.1390589 L142.850866,38.9373446" id="Fill-11" fill="#1D2649" sketch:type="MSShapeGroup"/>
                <path d="M148.131367,38.2195518 C148.131367,38.0444804 148.284179,37.8869161 148.45397,37.8869161 L148.997301,37.8869161 C149.167093,37.8869161 149.319904,38.0444804 149.319904,38.2195518 L149.319904,41.9142884 C149.319904,43.2448312 149.897194,43.8918661 150.848731,43.8918661 C152.139143,43.8918661 152.868537,42.8939589 152.868537,42.8939589 L152.868537,38.2195518 C152.868537,38.0444804 153.022057,37.8869161 153.19114,37.8869161 L153.717493,37.8869161 C153.887991,37.8869161 154.040096,38.0444804 154.040096,38.2195518 L154.040096,44.557867 C154.040096,44.7329384 153.887991,44.8905027 153.717493,44.8905027 L153.39489,44.8905027 C153.208827,44.8905027 153.14091,44.7679527 153.089973,44.5921518 L152.971119,44.1369661 C152.971119,44.1369661 152.173101,45.0655741 150.763128,45.0655741 C148.793552,45.0655741 148.131367,43.7518089 148.131367,41.8960518 L148.131367,38.2195518" id="Fill-12" fill="#1D2649" sketch:type="MSShapeGroup"/>
                <path d="M156.452543,38.2195518 C156.452543,38.0444804 156.604648,37.8869161 156.775146,37.8869161 L157.097749,37.8869161 C157.233582,37.8869161 157.352436,37.9744518 157.386394,38.1320161 L157.521519,38.6397232 C157.521519,38.6397232 158.150454,37.7118446 159.559719,37.7118446 C160.069093,37.7118446 160.918048,37.7993804 160.748257,38.2895804 L160.544507,38.8848232 C160.459612,39.1124161 160.3068,39.1124161 160.137009,39.0423875 C159.984197,38.9723589 159.72951,38.9023304 159.474824,38.9023304 C158.184412,38.9023304 157.624101,39.8827304 157.624101,39.8827304 L157.624101,44.557867 C157.624101,44.7329384 157.47129,44.8905027 157.301499,44.8905027 L156.775146,44.8905027 C156.604648,44.8905027 156.452543,44.7329384 156.452543,44.557867 L156.452543,38.2195518" id="Fill-13" fill="#1D2649" sketch:type="MSShapeGroup"/>
                <path d="M166.827484,40.7055661 C166.776546,39.6901518 165.961549,38.7797804 164.925824,38.7797804 C163.788224,38.7797804 162.90531,39.6201232 162.786457,40.7055661 L166.827484,40.7055661 L166.827484,40.7055661 Z M164.925824,37.7118446 C166.70863,37.7118446 167.999042,39.0774018 167.999042,40.9156518 C167.999042,41.0382018 167.982063,41.2657946 167.965084,41.3883446 C167.948104,41.5634161 167.812272,41.6859661 167.65946,41.6859661 L162.76877,41.6859661 C162.836687,42.8589446 163.839161,43.9618946 165.044678,43.9618946 C165.7578,43.9618946 166.33509,43.6817804 166.725609,43.4366804 C166.963316,43.2966232 167.064484,43.209817 167.201024,43.4023955 C167.302899,43.5417232 167.387794,43.6650027 167.489669,43.8043304 C167.608522,43.9618946 167.676439,44.067667 167.421752,44.2595161 C167.014254,44.5921518 166.096675,45.0655741 164.925824,45.0655741 C162.871352,45.0655741 161.597212,43.4023955 161.597212,41.3883446 C161.597212,39.4100375 162.871352,37.7118446 164.925824,37.7118446 L164.925824,37.7118446 Z" id="Fill-14" fill="#1D2649" sketch:type="MSShapeGroup"/>
                <path d="M68.095406,0.843990179 C68.095406,0.492388393 68.3684866,0.175800893 68.7434418,0.175800893 L82.6231522,0.175800893 C82.9974,0.175800893 83.2704806,0.492388393 83.2704806,0.843990179 L83.2704806,3.7275625 C83.2704806,4.07843482 82.9974,4.39575179 82.6231522,4.39575179 L72.5290746,4.39575179 L72.5290746,10.1614375 L80.9514179,10.1614375 C81.2931224,10.1614375 81.5994537,10.4787545 81.5994537,10.8296268 L81.5994537,13.7482134 C81.5994537,14.1355589 81.2931224,14.4164027 80.9514179,14.4164027 L72.5290746,14.4164027 L72.5290746,20.5701634 L82.6231522,20.5701634 C82.9974,20.5701634 83.2704806,20.8860214 83.2704806,21.2383527 L83.2704806,24.1211955 C83.2704806,24.4727973 82.9974,24.7893848 82.6231522,24.7893848 L68.7434418,24.7893848 C68.3684866,24.7893848 68.095406,24.4727973 68.095406,24.1211955 L68.095406,0.843990179" id="Fill-15" fill="#1D2649" sketch:type="MSShapeGroup"/>
                <path d="M99.777,16.3852268 L96.3670299,8.6499875 L96.2644478,8.6499875 L92.922394,16.3852268 L99.777,16.3852268 L99.777,16.3852268 Z M85.044797,23.8753661 L95.6510776,0.211544643 C95.7529522,0.000729464286 95.9234507,-0.175800893 96.2304896,-0.175800893 L96.5714866,-0.175800893 C96.9124836,-0.175800893 97.0490239,0.000729464286 97.1508985,0.211544643 L107.654597,23.8753661 C107.859054,24.3320107 107.585973,24.7893848 107.074478,24.7893848 L104.108087,24.7893848 C103.596591,24.7893848 103.357469,24.5785696 103.119054,24.0861813 L101.448027,20.2885902 L91.2513672,20.2885902 L89.5810478,24.0861813 C89.4445075,24.437783 89.1374687,24.7893848 88.5920149,24.7893848 L85.6249164,24.7893848 C85.1134209,24.7893848 84.8403403,24.3320107 85.044797,23.8753661 L85.044797,23.8753661 Z" id="Fill-16" fill="#1D2649" sketch:type="MSShapeGroup"/>
                <path d="M109.360997,21.3433955 L110.588445,19.1630268 C110.861525,18.6706384 111.440937,18.6706384 111.747976,18.9171973 C111.918475,19.0229696 114.681116,21.0968366 116.89689,21.0968366 C118.670499,21.0968366 120.000528,19.9019741 120.000528,18.3905241 C120.000528,16.5967714 118.534666,15.3661652 115.670149,14.1698438 C112.464636,12.8341946 109.259122,10.7245839 109.259122,6.57539107 C109.259122,3.44598929 111.509561,-0.175800893 116.931555,-0.175800893 C120.409442,-0.175800893 123.069501,1.65296607 123.752203,2.18036875 C124.092493,2.39118393 124.195075,2.98861518 123.95666,3.34094643 L122.660588,5.34478482 C122.387507,5.76714464 121.876012,6.04798839 121.466391,5.76714464 C121.194725,5.59134375 118.602582,3.83260536 116.727099,3.83260536 C114.782991,3.83260536 113.726042,5.16825446 113.726042,6.29381786 C113.726042,7.94678393 114.987448,9.07161786 117.749382,10.2321955 C121.057478,11.6035884 124.877069,13.6431705 124.877069,18.17825 C124.877069,21.8000402 121.842761,25.1409866 117.034137,25.1409866 C112.737009,25.1409866 110.21349,23.0663902 109.531496,22.3989304 C109.224457,22.0816134 109.053958,21.906542 109.360997,21.3433955" id="Fill-17" fill="#1D2649" sketch:type="MSShapeGroup"/>
                <path d="M133.81303,12.939967 L126.037307,1.19559196 C125.764934,0.738217857 126.037307,0.175800893 126.583469,0.175800893 L130.061355,0.175800893 C130.334436,0.175800893 130.504934,0.351601786 130.606809,0.492388393 L136.063469,8.57922946 L141.519421,0.492388393 C141.622003,0.351601786 141.792501,0.175800893 142.065582,0.175800893 L145.577427,0.175800893 C146.123588,0.175800893 146.395961,0.738217857 146.123588,1.19559196 L138.245991,12.9049527 L138.245991,24.1211955 C138.245991,24.4727973 137.938952,24.7893848 137.597955,24.7893848 L134.461066,24.7893848 C134.085403,24.7893848 133.81303,24.4727973 133.81303,24.1211955 L133.81303,12.939967" id="Fill-18" fill="#1D2649" sketch:type="MSShapeGroup"/>
                <path d="M149.125352,0.843990179 C149.125352,0.492388393 149.398433,0.175800893 149.773388,0.175800893 L163.652391,0.175800893 C164.028054,0.175800893 164.300427,0.492388393 164.300427,0.843990179 L164.300427,3.7275625 C164.300427,4.07843482 164.028054,4.39575179 163.652391,4.39575179 L153.558313,4.39575179 L153.558313,11.0054277 L161.981364,11.0054277 C162.322361,11.0054277 162.6294,11.3220152 162.6294,11.673617 L162.6294,14.5571893 C162.6294,14.9087911 162.322361,15.2253786 161.981364,15.2253786 L153.558313,15.2253786 L153.558313,24.1211955 C153.558313,24.4727973 153.251275,24.7893848 152.910985,24.7893848 L149.773388,24.7893848 C149.398433,24.7893848 149.125352,24.4727973 149.125352,24.1211955 L149.125352,0.843990179" id="Fill-19" fill="#1D2649" sketch:type="MSShapeGroup"/>
                <path d="M179.988412,16.3852268 L176.578442,8.6499875 L176.47586,8.6499875 L173.134513,16.3852268 L179.988412,16.3852268 L179.988412,16.3852268 Z M165.256916,23.8753661 L175.86249,0.211544643 C175.965072,0.000729464286 176.13557,-0.175800893 176.441901,-0.175800893 L176.782899,-0.175800893 C177.123896,-0.175800893 177.261143,0.000729464286 177.363018,0.211544643 L187.866009,23.8753661 C188.070466,24.3320107 187.798093,24.7893848 187.28589,24.7893848 L184.319499,24.7893848 C183.808003,24.7893848 183.569588,24.5785696 183.330466,24.0861813 L181.659439,20.2885902 L171.462779,20.2885902 L169.79246,24.0861813 C169.655919,24.437783 169.348881,24.7893848 168.803427,24.7893848 L165.836328,24.7893848 C165.32554,24.7893848 165.05246,24.3320107 165.256916,23.8753661 L165.256916,23.8753661 Z" id="Fill-20" fill="#1D2649" sketch:type="MSShapeGroup"/>
                <path d="M190.971063,0.843990179 C190.971063,0.492388393 191.277394,0.175800893 191.619099,0.175800893 L194.789946,0.175800893 C195.130943,0.175800893 195.437982,0.492388393 195.437982,0.843990179 L195.437982,24.1211955 C195.437982,24.4727973 195.130943,24.7893848 194.789946,24.7893848 L191.619099,24.7893848 C191.277394,24.7893848 190.971063,24.4727973 190.971063,24.1211955 L190.971063,0.843990179" id="Fill-21" fill="#1D2649" sketch:type="MSShapeGroup"/>
                <path d="M209.624024,11.3927732 C211.430884,11.3927732 213.000036,9.77555089 213.000036,7.80599732 C213.000036,5.94221607 211.430884,4.39575179 209.624024,4.39575179 L204.06549,4.39575179 L204.06549,11.3927732 L209.624024,11.3927732 L209.624024,11.3927732 Z M199.59857,0.843990179 C199.59857,0.492388393 199.871651,0.175800893 200.246606,0.175800893 L209.998979,0.175800893 C214.090943,0.175800893 217.433704,3.55176161 217.433704,7.73596875 C217.433704,10.9711429 215.353057,13.6081562 212.385958,14.838033 L217.058749,23.7703232 C217.296457,24.2262384 217.058749,24.7893848 216.47863,24.7893848 L212.898161,24.7893848 C212.591122,24.7893848 212.420624,24.6135839 212.352,24.4727973 L207.816457,15.15535 L204.030824,15.15535 L204.030824,24.1211955 C204.030824,24.4727973 203.724493,24.7893848 203.383496,24.7893848 L200.246606,24.7893848 C199.871651,24.7893848 199.59857,24.4727973 199.59857,24.1211955 L199.59857,0.843990179 L199.59857,0.843990179 Z" id="Fill-22" fill="#1D2649" sketch:type="MSShapeGroup"/>
                <path d="M220.913006,21.3433955 L222.140454,19.1630268 C222.413534,18.6706384 222.992946,18.6706384 223.299985,18.9171973 C223.470484,19.0229696 226.232418,21.0968366 228.448899,21.0968366 C230.222507,21.0968366 231.552537,19.9019741 231.552537,18.3905241 C231.552537,16.5967714 230.086675,15.3661652 227.221451,14.1698438 C224.015937,12.8341946 220.810424,10.7245839 220.810424,6.57539107 C220.810424,3.44598929 223.06157,-0.175800893 228.483564,-0.175800893 C231.961451,-0.175800893 234.62151,1.65296607 235.304212,2.18036875 C235.644501,2.39118393 235.747084,2.98861518 235.508669,3.34094643 L234.212597,5.34478482 C233.939516,5.76714464 233.428021,6.04798839 233.019107,5.76714464 C232.746027,5.59134375 230.153884,3.83260536 228.279107,3.83260536 C226.335,3.83260536 225.278051,5.16825446 225.278051,6.29381786 C225.278051,7.94678393 226.539457,9.07161786 229.301391,10.2321955 C232.609487,11.6035884 236.42837,13.6431705 236.42837,18.17825 C236.42837,21.8000402 233.393355,25.1409866 228.585439,25.1409866 C224.289018,25.1409866 221.765499,23.0663902 221.083504,22.3989304 C220.776466,22.0816134 220.605967,21.906542 220.913006,21.3433955" id="Fill-23" fill="#1D2649" sketch:type="MSShapeGroup"/>
                <path d="M43.6469104,0.135680357 L24.2249373,0.135680357 C17.5358776,0.135680357 12.1124687,5.72629464 12.1124687,12.6248384 L31.5344418,12.6248384 C38.224209,12.6248384 43.6469104,18.2139938 43.6469104,25.1139964 L43.6469104,45.1385205 C50.3359701,45.1385205 55.7579642,39.5471768 55.7579642,32.6508214 L55.7579642,12.6248384 C55.7579642,5.72629464 50.3359701,0.135680357 43.6469104,0.135680357" id="Fill-24" fill="#00A57F" sketch:type="MSShapeGroup"/>
                <path d="M31.5344418,32.6508214 L31.5344418,25.1110786 L24.2249373,25.1110786 C17.5358776,25.1110786 12.1124687,19.5204643 12.1124687,12.6219205 C5.42340896,12.6219205 0,18.2139938 0,25.1110786 C0,32.0096223 5.42340896,37.6002366 12.1124687,37.6002366 L19.4219731,37.6002366 L19.4219731,45.1385205 C19.4219731,52.0363348 24.8453821,57.6276786 31.5344418,57.6276786 C38.224209,57.6276786 43.6469104,52.0363348 43.6469104,45.1385205 C36.9564358,45.1385205 31.5344418,39.5471768 31.5344418,32.6508214" id="Fill-25" fill="#76BA43" sketch:type="MSShapeGroup"/>
                <path d="M31.5344418,12.6248384 L12.1124687,12.6248384 C12.1124687,19.5204643 17.5358776,25.1139964 24.2249373,25.1139964 L31.5344418,25.1139964 L31.5344418,32.6508214 C31.5344418,39.5471768 36.9564358,45.1385205 43.6469104,45.1385205 L43.6469104,25.1139964 C43.6469104,18.2139938 38.224209,12.6248384 31.5344418,12.6248384" id="Fill-26" fill="#006C4E" sketch:type="MSShapeGroup"/>
            </g>
        </g>
    </g>
</svg>